<mxfile host="app.diagrams.net" modified="2024-07-06T06:17:06.089Z" agent="Mozilla/5.0 (Windows NT 10.0; Win64; x64) AppleWebKit/537.36 (KHTML, like Gecko) Chrome/126.0.0.0 Safari/537.36" etag="KbWd0Ab2GOehnHaGsXS_" version="24.6.4" type="github">
  <diagram name="Trang-1" id="3lMGjxJ0AhCZ4zsuh_aI">
    <mxGraphModel dx="1035" dy="1670" grid="1" gridSize="10" guides="1" tooltips="1" connect="1" arrows="1" fold="1" page="1" pageScale="1" pageWidth="827" pageHeight="1169" math="0" shadow="0">
      <root>
        <mxCell id="0" />
        <mxCell id="1" parent="0" />
        <mxCell id="i8zfMLWHgNO3StByu_rb-1" value="" style="strokeWidth=2;html=1;shape=mxgraph.flowchart.direct_data;whiteSpace=wrap;fillColor=#dae8fc;strokeColor=#6c8ebf;" vertex="1" parent="1">
          <mxGeometry x="10" y="174" width="120" height="70" as="geometry" />
        </mxCell>
        <mxCell id="i8zfMLWHgNO3StByu_rb-2" value="" style="strokeWidth=2;html=1;shape=mxgraph.flowchart.direct_data;whiteSpace=wrap;fillColor=#dae8fc;strokeColor=#6c8ebf;" vertex="1" parent="1">
          <mxGeometry x="110" y="174" width="100" height="70" as="geometry" />
        </mxCell>
        <mxCell id="i8zfMLWHgNO3StByu_rb-3" value="" style="strokeWidth=2;html=1;shape=mxgraph.flowchart.direct_data;whiteSpace=wrap;fillColor=#dae8fc;strokeColor=#6c8ebf;" vertex="1" parent="1">
          <mxGeometry x="190" y="174" width="100" height="70" as="geometry" />
        </mxCell>
        <mxCell id="i8zfMLWHgNO3StByu_rb-4" value="&lt;font style=&quot;font-size: 18px;&quot;&gt;Inpul channel:&lt;/font&gt;&lt;div&gt;&lt;font size=&quot;3&quot;&gt;FASTQ_file_pairs&lt;br&gt;&lt;/font&gt;&lt;div&gt;&lt;br&gt;&lt;/div&gt;&lt;/div&gt;" style="text;strokeColor=none;fillColor=none;html=1;fontSize=24;fontStyle=1;verticalAlign=middle;align=center;" vertex="1" parent="1">
          <mxGeometry x="110" y="120" width="100" height="40" as="geometry" />
        </mxCell>
        <mxCell id="i8zfMLWHgNO3StByu_rb-8" value="&lt;b&gt;&lt;font style=&quot;font-size: 14px;&quot;&gt;Virus 0,1%&lt;/font&gt;&lt;/b&gt;" style="text;strokeColor=none;fillColor=none;html=1;whiteSpace=wrap;verticalAlign=middle;overflow=hidden;" vertex="1" parent="1">
          <mxGeometry x="25" y="169" width="90" height="80" as="geometry" />
        </mxCell>
        <mxCell id="i8zfMLWHgNO3StByu_rb-9" value="&lt;b&gt;&lt;font style=&quot;font-size: 14px;&quot;&gt;Virus 1%&lt;/font&gt;&lt;/b&gt;" style="text;strokeColor=none;fillColor=none;html=1;whiteSpace=wrap;verticalAlign=middle;overflow=hidden;" vertex="1" parent="1">
          <mxGeometry x="120" y="164" width="100" height="90" as="geometry" />
        </mxCell>
        <mxCell id="i8zfMLWHgNO3StByu_rb-10" value="&lt;b&gt;&lt;font style=&quot;font-size: 14px;&quot;&gt;Virus 10%&lt;/font&gt;&lt;/b&gt;" style="text;strokeColor=none;fillColor=none;html=1;whiteSpace=wrap;verticalAlign=middle;overflow=hidden;" vertex="1" parent="1">
          <mxGeometry x="200" y="164" width="100" height="90" as="geometry" />
        </mxCell>
        <mxCell id="i8zfMLWHgNO3StByu_rb-11" value="" style="rounded=1;whiteSpace=wrap;html=1;fillColor=#fff2cc;strokeColor=#d6b656;" vertex="1" parent="1">
          <mxGeometry x="314" y="30" width="330" height="340" as="geometry" />
        </mxCell>
        <mxCell id="i8zfMLWHgNO3StByu_rb-12" value="&lt;div&gt;&lt;span style=&quot;font-size: 18px;&quot;&gt;Process: FastQC&lt;/span&gt;&lt;br&gt;&lt;div&gt;&lt;br&gt;&lt;/div&gt;&lt;/div&gt;" style="text;strokeColor=none;fillColor=none;html=1;fontSize=24;fontStyle=1;verticalAlign=middle;align=center;" vertex="1" parent="1">
          <mxGeometry x="423" width="100" height="40" as="geometry" />
        </mxCell>
        <mxCell id="i8zfMLWHgNO3StByu_rb-13" value="" style="verticalLabelPosition=bottom;verticalAlign=top;html=1;strokeWidth=0;shape=mxgraph.arrows2.arrow;dy=0.6;dx=30;notch=0;strokeColor=#000000;fillColor=#0D0D0D;opacity=90;" vertex="1" parent="1">
          <mxGeometry x="340" y="80" width="50" height="20" as="geometry" />
        </mxCell>
        <mxCell id="i8zfMLWHgNO3StByu_rb-16" value="&lt;b&gt;&lt;font style=&quot;font-size: 18px;&quot;&gt;Task 1&lt;/font&gt;&lt;/b&gt;&lt;div&gt;&lt;b&gt;&lt;font size=&quot;3&quot;&gt;Virus 0,1%&lt;/font&gt;&lt;/b&gt;&lt;/div&gt;" style="text;strokeColor=none;fillColor=none;html=1;whiteSpace=wrap;verticalAlign=middle;overflow=hidden;" vertex="1" parent="1">
          <mxGeometry x="390" y="50" width="100" height="80" as="geometry" />
        </mxCell>
        <mxCell id="i8zfMLWHgNO3StByu_rb-17" value="" style="verticalLabelPosition=bottom;verticalAlign=top;html=1;strokeWidth=0;shape=mxgraph.arrows2.arrow;dy=0.6;dx=30;notch=0;strokeColor=#000000;fillColor=#0D0D0D;opacity=90;" vertex="1" parent="1">
          <mxGeometry x="490" y="80" width="50" height="20" as="geometry" />
        </mxCell>
        <mxCell id="i8zfMLWHgNO3StByu_rb-18" value="&lt;span style=&quot;font-size: 18px;&quot;&gt;&lt;b&gt;Ouput&lt;/b&gt;&lt;/span&gt;&lt;br&gt;&lt;div&gt;&lt;b&gt;&lt;font size=&quot;3&quot;&gt;Virus 0,1%&lt;/font&gt;&lt;/b&gt;&lt;/div&gt;" style="text;strokeColor=none;fillColor=none;html=1;whiteSpace=wrap;verticalAlign=middle;overflow=hidden;" vertex="1" parent="1">
          <mxGeometry x="550" y="50" width="100" height="80" as="geometry" />
        </mxCell>
        <mxCell id="i8zfMLWHgNO3StByu_rb-19" value="" style="verticalLabelPosition=bottom;verticalAlign=top;html=1;strokeWidth=0;shape=mxgraph.arrows2.arrow;dy=0.6;dx=30;notch=0;strokeColor=#000000;fillColor=#0D0D0D;opacity=90;" vertex="1" parent="1">
          <mxGeometry x="339" y="201" width="50" height="20" as="geometry" />
        </mxCell>
        <mxCell id="i8zfMLWHgNO3StByu_rb-20" value="&lt;b&gt;&lt;font style=&quot;font-size: 18px;&quot;&gt;Task 1&lt;/font&gt;&lt;/b&gt;&lt;div&gt;&lt;b&gt;&lt;font size=&quot;3&quot;&gt;Virus 1%&lt;/font&gt;&lt;/b&gt;&lt;/div&gt;" style="text;strokeColor=none;fillColor=none;html=1;whiteSpace=wrap;verticalAlign=middle;overflow=hidden;" vertex="1" parent="1">
          <mxGeometry x="389" y="171" width="100" height="80" as="geometry" />
        </mxCell>
        <mxCell id="i8zfMLWHgNO3StByu_rb-21" value="" style="verticalLabelPosition=bottom;verticalAlign=top;html=1;strokeWidth=0;shape=mxgraph.arrows2.arrow;dy=0.6;dx=30;notch=0;strokeColor=#000000;fillColor=#0D0D0D;opacity=90;" vertex="1" parent="1">
          <mxGeometry x="489" y="201" width="50" height="20" as="geometry" />
        </mxCell>
        <mxCell id="i8zfMLWHgNO3StByu_rb-22" value="&lt;span style=&quot;font-size: 18px;&quot;&gt;&lt;b&gt;Ouput&lt;/b&gt;&lt;/span&gt;&lt;br&gt;&lt;div&gt;&lt;b&gt;&lt;font size=&quot;3&quot;&gt;Virus 1%&lt;/font&gt;&lt;/b&gt;&lt;/div&gt;" style="text;strokeColor=none;fillColor=none;html=1;whiteSpace=wrap;verticalAlign=middle;overflow=hidden;" vertex="1" parent="1">
          <mxGeometry x="549" y="171" width="100" height="80" as="geometry" />
        </mxCell>
        <mxCell id="i8zfMLWHgNO3StByu_rb-23" value="" style="verticalLabelPosition=bottom;verticalAlign=top;html=1;strokeWidth=0;shape=mxgraph.arrows2.arrow;dy=0.6;dx=30;notch=0;strokeColor=#000000;fillColor=#0D0D0D;opacity=90;" vertex="1" parent="1">
          <mxGeometry x="339" y="319" width="50" height="20" as="geometry" />
        </mxCell>
        <mxCell id="i8zfMLWHgNO3StByu_rb-24" value="&lt;b&gt;&lt;font style=&quot;font-size: 18px;&quot;&gt;Task 1&lt;/font&gt;&lt;/b&gt;&lt;div&gt;&lt;b&gt;&lt;font size=&quot;3&quot;&gt;Virus 10%&lt;/font&gt;&lt;/b&gt;&lt;/div&gt;" style="text;strokeColor=none;fillColor=none;html=1;whiteSpace=wrap;verticalAlign=middle;overflow=hidden;" vertex="1" parent="1">
          <mxGeometry x="389" y="289" width="100" height="80" as="geometry" />
        </mxCell>
        <mxCell id="i8zfMLWHgNO3StByu_rb-25" value="" style="verticalLabelPosition=bottom;verticalAlign=top;html=1;strokeWidth=0;shape=mxgraph.arrows2.arrow;dy=0.6;dx=30;notch=0;strokeColor=#000000;fillColor=#0D0D0D;opacity=90;" vertex="1" parent="1">
          <mxGeometry x="489" y="319" width="50" height="20" as="geometry" />
        </mxCell>
        <mxCell id="i8zfMLWHgNO3StByu_rb-26" value="&lt;span style=&quot;font-size: 18px;&quot;&gt;&lt;b&gt;Ouput&lt;/b&gt;&lt;/span&gt;&lt;br&gt;&lt;div&gt;&lt;b&gt;&lt;font size=&quot;3&quot;&gt;Virus 10%&lt;/font&gt;&lt;/b&gt;&lt;/div&gt;" style="text;strokeColor=none;fillColor=none;html=1;whiteSpace=wrap;verticalAlign=middle;overflow=hidden;" vertex="1" parent="1">
          <mxGeometry x="549" y="289" width="100" height="80" as="geometry" />
        </mxCell>
        <mxCell id="i8zfMLWHgNO3StByu_rb-27" value="" style="rounded=1;whiteSpace=wrap;html=1;fillColor=#fff2cc;strokeColor=#d6b656;" vertex="1" parent="1">
          <mxGeometry x="666" y="33" width="330" height="340" as="geometry" />
        </mxCell>
        <mxCell id="i8zfMLWHgNO3StByu_rb-28" value="&lt;div&gt;&lt;span style=&quot;font-size: 18px;&quot;&gt;Process: Fastp&lt;/span&gt;&lt;br&gt;&lt;div&gt;&lt;br&gt;&lt;/div&gt;&lt;/div&gt;" style="text;strokeColor=none;fillColor=none;html=1;fontSize=24;fontStyle=1;verticalAlign=middle;align=center;" vertex="1" parent="1">
          <mxGeometry x="775" y="3" width="100" height="40" as="geometry" />
        </mxCell>
        <mxCell id="i8zfMLWHgNO3StByu_rb-29" value="" style="verticalLabelPosition=bottom;verticalAlign=top;html=1;strokeWidth=0;shape=mxgraph.arrows2.arrow;dy=0.6;dx=30;notch=0;strokeColor=#000000;fillColor=#0D0D0D;opacity=90;" vertex="1" parent="1">
          <mxGeometry x="692" y="83" width="50" height="20" as="geometry" />
        </mxCell>
        <mxCell id="i8zfMLWHgNO3StByu_rb-30" value="&lt;b&gt;&lt;font style=&quot;font-size: 18px;&quot;&gt;Task 1&lt;/font&gt;&lt;/b&gt;&lt;div&gt;&lt;b&gt;&lt;font size=&quot;3&quot;&gt;Virus 0,1%&lt;/font&gt;&lt;/b&gt;&lt;/div&gt;" style="text;strokeColor=none;fillColor=none;html=1;whiteSpace=wrap;verticalAlign=middle;overflow=hidden;" vertex="1" parent="1">
          <mxGeometry x="742" y="53" width="100" height="80" as="geometry" />
        </mxCell>
        <mxCell id="i8zfMLWHgNO3StByu_rb-31" value="" style="verticalLabelPosition=bottom;verticalAlign=top;html=1;strokeWidth=0;shape=mxgraph.arrows2.arrow;dy=0.6;dx=30;notch=0;strokeColor=#000000;fillColor=#0D0D0D;opacity=90;" vertex="1" parent="1">
          <mxGeometry x="842" y="83" width="50" height="20" as="geometry" />
        </mxCell>
        <mxCell id="i8zfMLWHgNO3StByu_rb-32" value="&lt;span style=&quot;font-size: 18px;&quot;&gt;&lt;b&gt;Ouput&lt;/b&gt;&lt;/span&gt;&lt;br&gt;&lt;div&gt;&lt;b&gt;&lt;font size=&quot;3&quot;&gt;Virus 0,1%&lt;/font&gt;&lt;/b&gt;&lt;/div&gt;" style="text;strokeColor=none;fillColor=none;html=1;whiteSpace=wrap;verticalAlign=middle;overflow=hidden;" vertex="1" parent="1">
          <mxGeometry x="902" y="53" width="100" height="80" as="geometry" />
        </mxCell>
        <mxCell id="i8zfMLWHgNO3StByu_rb-33" value="" style="verticalLabelPosition=bottom;verticalAlign=top;html=1;strokeWidth=0;shape=mxgraph.arrows2.arrow;dy=0.6;dx=30;notch=0;strokeColor=#000000;fillColor=#0D0D0D;opacity=90;" vertex="1" parent="1">
          <mxGeometry x="691" y="204" width="50" height="20" as="geometry" />
        </mxCell>
        <mxCell id="i8zfMLWHgNO3StByu_rb-34" value="&lt;b&gt;&lt;font style=&quot;font-size: 18px;&quot;&gt;Task 1&lt;/font&gt;&lt;/b&gt;&lt;div&gt;&lt;b&gt;&lt;font size=&quot;3&quot;&gt;Virus 1%&lt;/font&gt;&lt;/b&gt;&lt;/div&gt;" style="text;strokeColor=none;fillColor=none;html=1;whiteSpace=wrap;verticalAlign=middle;overflow=hidden;" vertex="1" parent="1">
          <mxGeometry x="741" y="174" width="100" height="80" as="geometry" />
        </mxCell>
        <mxCell id="i8zfMLWHgNO3StByu_rb-35" value="" style="verticalLabelPosition=bottom;verticalAlign=top;html=1;strokeWidth=0;shape=mxgraph.arrows2.arrow;dy=0.6;dx=30;notch=0;strokeColor=#000000;fillColor=#0D0D0D;opacity=90;" vertex="1" parent="1">
          <mxGeometry x="841" y="204" width="50" height="20" as="geometry" />
        </mxCell>
        <mxCell id="i8zfMLWHgNO3StByu_rb-36" value="&lt;span style=&quot;font-size: 18px;&quot;&gt;&lt;b&gt;Ouput&lt;/b&gt;&lt;/span&gt;&lt;br&gt;&lt;div&gt;&lt;b&gt;&lt;font size=&quot;3&quot;&gt;Virus 1%&lt;/font&gt;&lt;/b&gt;&lt;/div&gt;" style="text;strokeColor=none;fillColor=none;html=1;whiteSpace=wrap;verticalAlign=middle;overflow=hidden;" vertex="1" parent="1">
          <mxGeometry x="901" y="174" width="100" height="80" as="geometry" />
        </mxCell>
        <mxCell id="i8zfMLWHgNO3StByu_rb-37" value="" style="verticalLabelPosition=bottom;verticalAlign=top;html=1;strokeWidth=0;shape=mxgraph.arrows2.arrow;dy=0.6;dx=30;notch=0;strokeColor=#000000;fillColor=#0D0D0D;opacity=90;" vertex="1" parent="1">
          <mxGeometry x="691" y="322" width="50" height="20" as="geometry" />
        </mxCell>
        <mxCell id="i8zfMLWHgNO3StByu_rb-38" value="&lt;b&gt;&lt;font style=&quot;font-size: 18px;&quot;&gt;Task 1&lt;/font&gt;&lt;/b&gt;&lt;div&gt;&lt;b&gt;&lt;font size=&quot;3&quot;&gt;Virus 10%&lt;/font&gt;&lt;/b&gt;&lt;/div&gt;" style="text;strokeColor=none;fillColor=none;html=1;whiteSpace=wrap;verticalAlign=middle;overflow=hidden;" vertex="1" parent="1">
          <mxGeometry x="741" y="292" width="100" height="80" as="geometry" />
        </mxCell>
        <mxCell id="i8zfMLWHgNO3StByu_rb-39" value="" style="verticalLabelPosition=bottom;verticalAlign=top;html=1;strokeWidth=0;shape=mxgraph.arrows2.arrow;dy=0.6;dx=30;notch=0;strokeColor=#000000;fillColor=#0D0D0D;opacity=90;" vertex="1" parent="1">
          <mxGeometry x="841" y="322" width="50" height="20" as="geometry" />
        </mxCell>
        <mxCell id="i8zfMLWHgNO3StByu_rb-40" value="&lt;span style=&quot;font-size: 18px;&quot;&gt;&lt;b&gt;Ouput&lt;/b&gt;&lt;/span&gt;&lt;br&gt;&lt;div&gt;&lt;b&gt;&lt;font size=&quot;3&quot;&gt;Virus 10%&lt;/font&gt;&lt;/b&gt;&lt;/div&gt;" style="text;strokeColor=none;fillColor=none;html=1;whiteSpace=wrap;verticalAlign=middle;overflow=hidden;" vertex="1" parent="1">
          <mxGeometry x="901" y="292" width="100" height="80" as="geometry" />
        </mxCell>
      </root>
    </mxGraphModel>
  </diagram>
</mxfile>
